<mxfile host="65bd71144e" modified="2021-01-26T08:51:23.122Z" agent="5.0 (Windows NT 10.0; Win64; x64) AppleWebKit/537.36 (KHTML, like Gecko) Code/1.52.1 Chrome/83.0.4103.122 Electron/9.3.5 Safari/537.36" version="13.10.0" etag="OLkDpFh5t6qHdy0IR5HN" type="embed">
    <diagram id="4pLtzsOMFD_9JC38LSGn" name="Page-1">
        <mxGraphModel dx="990" dy="575" grid="1" gridSize="10" guides="1" tooltips="1" connect="1" arrows="1" fold="1" page="1" pageScale="1" pageWidth="827" pageHeight="1169" math="0" shadow="0">
            <root>
                <mxCell id="0"/>
                <mxCell id="1" parent="0"/>
                <mxCell id="2" value="Controller" style="rounded=1;whiteSpace=wrap;html=1;fontFamily=Times New Roman;fillColor=#f8cecc;strokeColor=#b85450;fontColor=#000000;" vertex="1" parent="1">
                    <mxGeometry x="280" y="80" width="70" height="40" as="geometry"/>
                </mxCell>
                <mxCell id="3" value="Service" style="rounded=1;whiteSpace=wrap;html=1;fontFamily=Times New Roman;fillColor=#f8cecc;strokeColor=#b85450;fontColor=#000000;" vertex="1" parent="1">
                    <mxGeometry x="280" y="150" width="70" height="40" as="geometry"/>
                </mxCell>
                <mxCell id="4" value="DAO&lt;span style=&quot;color: rgba(0 , 0 , 0 , 0) ; font-family: monospace ; font-size: 0px&quot;&gt;%3CmxGraphModel%3E%3Croot%3E%3CmxCell%20id%3D%220%22%2F%3E%3CmxCell%20id%3D%221%22%20parent%3D%220%22%2F%3E%3CmxCell%20id%3D%222%22%20value%3D%22Service%22%20style%3D%22rounded%3D1%3BwhiteSpace%3Dwrap%3Bhtml%3D1%3BfontFamily%3DTimes%20New%20Roman%3BfillColor%3D%23f8cecc%3BstrokeColor%3D%23b85450%3BfontColor%3D%23000000%3B%22%20vertex%3D%221%22%20parent%3D%221%22%3E%3CmxGeometry%20x%3D%22280%22%20y%3D%22150%22%20width%3D%2270%22%20height%3D%2240%22%20as%3D%22geometry%22%2F%3E%3C%2FmxCell%3E%3C%2Froot%3E%3C%2FmxGraphModel%3E&lt;/span&gt;" style="rounded=1;whiteSpace=wrap;html=1;fontFamily=Times New Roman;fillColor=#f8cecc;strokeColor=#b85450;fontColor=#000000;" vertex="1" parent="1">
                    <mxGeometry x="280" y="220" width="70" height="40" as="geometry"/>
                </mxCell>
                <mxCell id="5" value="Database" style="rounded=1;whiteSpace=wrap;html=1;fontFamily=Times New Roman;fillColor=#f8cecc;strokeColor=#b85450;fontColor=#000000;" vertex="1" parent="1">
                    <mxGeometry x="280" y="290" width="70" height="40" as="geometry"/>
                </mxCell>
                <mxCell id="11" style="edgeStyle=none;rounded=0;orthogonalLoop=1;jettySize=auto;html=1;exitX=0;exitY=0.5;exitDx=0;exitDy=0;entryX=1;entryY=0.5;entryDx=0;entryDy=0;fontFamily=Times New Roman;fontColor=#000000;" edge="1" parent="1" source="6" target="2">
                    <mxGeometry relative="1" as="geometry"/>
                </mxCell>
                <mxCell id="6" value="&lt;span style=&quot;font-family: arial, sans-serif; font-size: 13px;&quot;&gt;Struts2&lt;/span&gt;" style="rounded=1;whiteSpace=wrap;html=1;fontFamily=Times New Roman;fillColor=#d5e8d4;strokeColor=#82b366;labelBackgroundColor=none;fontColor=#000000;" vertex="1" parent="1">
                    <mxGeometry x="420" y="110" width="64" height="40" as="geometry"/>
                </mxCell>
                <mxCell id="9" style="rounded=0;orthogonalLoop=1;jettySize=auto;html=1;exitX=0;exitY=0.5;exitDx=0;exitDy=0;entryX=1;entryY=0.5;entryDx=0;entryDy=0;fontFamily=Times New Roman;fontColor=#000000;" edge="1" parent="1" source="7" target="4">
                    <mxGeometry relative="1" as="geometry"/>
                </mxCell>
                <mxCell id="7" value="&lt;span style=&quot;font-family: &amp;quot;arial&amp;quot; , sans-serif ; font-size: 13px&quot;&gt;MyBatis&lt;/span&gt;" style="rounded=1;whiteSpace=wrap;html=1;fontFamily=Times New Roman;fillColor=#d5e8d4;strokeColor=#82b366;labelBackgroundColor=none;fontColor=#000000;" vertex="1" parent="1">
                    <mxGeometry x="414" y="230" width="70" height="40" as="geometry"/>
                </mxCell>
                <mxCell id="13" style="edgeStyle=none;rounded=0;orthogonalLoop=1;jettySize=auto;html=1;exitX=1;exitY=0.5;exitDx=0;exitDy=0;entryX=0;entryY=0.5;entryDx=0;entryDy=0;fontFamily=Times New Roman;fontSize=15;fontColor=#000000;" edge="1" parent="1" source="12" target="2">
                    <mxGeometry relative="1" as="geometry"/>
                </mxCell>
                <mxCell id="14" style="edgeStyle=none;rounded=0;orthogonalLoop=1;jettySize=auto;html=1;exitX=1;exitY=0.5;exitDx=0;exitDy=0;entryX=0;entryY=0.5;entryDx=0;entryDy=0;fontFamily=Times New Roman;fontSize=15;fontColor=#000000;" edge="1" parent="1" source="12" target="3">
                    <mxGeometry relative="1" as="geometry"/>
                </mxCell>
                <mxCell id="15" style="edgeStyle=none;rounded=0;orthogonalLoop=1;jettySize=auto;html=1;exitX=1;exitY=0.5;exitDx=0;exitDy=0;entryX=0;entryY=0.5;entryDx=0;entryDy=0;fontFamily=Times New Roman;fontSize=15;fontColor=#000000;" edge="1" parent="1" source="12" target="4">
                    <mxGeometry relative="1" as="geometry"/>
                </mxCell>
                <mxCell id="12" value="Spring" style="rounded=1;whiteSpace=wrap;html=1;labelBackgroundColor=none;fontFamily=Times New Roman;fillColor=#fff2cc;strokeColor=#d6b656;fontColor=#000000;fontSize=15;" vertex="1" parent="1">
                    <mxGeometry x="90" y="170" width="90" height="50" as="geometry"/>
                </mxCell>
            </root>
        </mxGraphModel>
    </diagram>
</mxfile>